<svg id="Layer_1" data-name="Layer 1" xmlns="http://www.w3.org/2000/svg" viewBox="0 0 22.48629 22.53261"><defs><style>.cls-1{fill:#fff;}</style></defs><title>whatsapp</title><path class="cls-1" d="M-321.166,263.31655c.40969-1.49888.80692-2.95234,1.20426-4.40576.10916-.39929.22651-.7966.32255-1.199a.49841.49841,0,0,0-.036-.32736,10.82854,10.82854,0,0,1-1.37187-6.13923,10.93675,10.93675,0,0,1,4.99955-8.60306,10.42671,10.42671,0,0,1,6.73429-1.82928,10.71412,10.71412,0,0,1,9.53351,6.49686,10.65,10.65,0,0,1-1.14478,11.25175,10.69883,10.69883,0,0,1-7.388,4.449,10.99244,10.99244,0,0,1-6.77609-1.14842.53959.53959,0,0,0-.3503-.03145q-2.73423.70472-5.46445,1.42506C-320.97682,263.27486-321.05137,263.29009-321.166,263.31655Zm2.68111-2.6541c.0694-.01308.09942-.01686.12842-.02448,1.02739-.26988,2.05593-.53556,3.081-.81408a.67014.67014,0,0,1,.56865.07968,9.04141,9.04141,0,0,0,6.63355,1.15336,9.2692,9.2692,0,0,0,7.306-10.70694,9.27714,9.27714,0,0,0-8.66819-7.66591,9.052,9.052,0,0,0-6.3323,2.08889,9.05463,9.05463,0,0,0-3.40405,6.67325,9.01527,9.01527,0,0,0,1.45675,5.52924.64609.64609,0,0,1,.08594.58461C-317.92182,258.57989-318.19528,259.6052-318.48491,260.66245Z" transform="translate(321.16602 -240.78394)"/><path class="cls-1" d="M-313.53865,246.8169c.50717-.13139.73736.17736.90746.62021.2491.64856.52422,1.28734.798,1.92612a.55516.55516,0,0,1-.04989.59586c-.22394.30094-.44212.60675-.67866.89754a.43062.43062,0,0,0-.05021.55377,7.66114,7.66114,0,0,0,3.85526,3.31688.426.426,0,0,0,.54362-.13123c.28426-.35331.57963-.6982.85157-1.0607a.42381.42381,0,0,1,.56945-.16829c.79188.37054,1.58286.74358,2.36342,1.137a.44244.44244,0,0,1,.17518.34269,2.15076,2.15076,0,0,1-1.64131,2.2894,3.29029,3.29029,0,0,1-2.20757.0209,11.34786,11.34786,0,0,1-6.24446-4.65592,6.30949,6.30949,0,0,1-1.137-2.2675,3.16187,3.16187,0,0,1,.92033-3.13017A1.13974,1.13974,0,0,1-313.53865,246.8169Z" transform="translate(321.16602 -240.78394)"/></svg>